<svg width="20" height="20" viewBox="0 0 20 20" fill="none" xmlns="http://www.w3.org/2000/svg">
<path d="M19.477 7.08502L12.0649 0.989072C10.8679 0.00707233 9.13298 0.00607234 7.93598 0.989072L0.523991 7.08404C0.204991 7.34704 0.157964 7.81907 0.420964 8.14007C0.685964 8.46007 1.15699 8.5051 1.47699 8.2431L2.24994 7.60711V16.0001C2.24994 18.4181 3.58194 19.7501 5.99994 19.7501H13.9999C16.4179 19.7501 17.7499 18.4181 17.7499 16.0001V7.60711L18.5229 8.2431C18.6629 8.3581 18.8319 8.414 18.9999 8.414C19.2159 8.414 19.4309 8.32105 19.5789 8.14105C19.8429 7.82005 19.796 7.34802 19.477 7.08502ZM16.2499 16.0001C16.2499 17.5771 15.5769 18.2501 13.9999 18.2501H5.99994C4.42294 18.2501 3.74994 17.5771 3.74994 16.0001V6.37408L8.88898 2.14911C9.53198 1.62011 10.469 1.62011 11.112 2.14911L16.2509 6.37506V16.0001H16.2499ZM7.59992 9.15008C7.59992 10.4731 8.67694 11.5501 9.99994 11.5501C11.3229 11.5501 12.4 10.4731 12.4 9.15008C12.4 7.82708 11.3229 6.75006 9.99994 6.75006C8.67694 6.75006 7.59992 7.82708 7.59992 9.15008ZM10.9 9.15008C10.9 9.64608 10.4959 10.0501 9.99994 10.0501C9.50394 10.0501 9.09992 9.64608 9.09992 9.15008C9.09992 8.65408 9.50394 8.25006 9.99994 8.25006C10.4959 8.25006 10.9 8.65408 10.9 9.15008ZM10.6419 12.2501C12.6829 12.2501 13.7499 13.7321 13.7499 15.1971V15.5001C13.7499 15.9141 13.4139 16.2501 12.9999 16.2501C12.5859 16.2501 12.2499 15.9141 12.2499 15.5001V15.1971C12.2499 14.4771 11.7529 13.7501 10.6419 13.7501H9.35895C8.24795 13.7501 7.75092 14.4771 7.75092 15.1971V15.5001C7.75092 15.9141 7.41492 16.2501 7.00092 16.2501C6.58692 16.2501 6.25092 15.9141 6.25092 15.5001V15.1971C6.25092 13.7331 7.31795 12.2501 9.35895 12.2501H10.6419Z" fill="black"/>
</svg>
